<svg width="258" height="76" viewBox="0 0 258 76" fill="none" xmlns="http://www.w3.org/2000/svg">
<path d="M126.024 5.92932H142.499L141.406 11.0093H130.716L129.693 15.8777H138.866L137.878 20.5696H128.706L127.541 25.8966H138.548L137.49 30.9766H120.698L126.024 5.92932ZM146.739 21.7338L142.717 12.4557H148.432L150.337 17.6768L150.513 18.3471L150.937 17.6768L155.17 12.4557H160.85L152.842 21.7338L157.04 30.9766H151.289L149.243 25.7907L149.067 25.1204L148.644 25.7907L144.41 30.9766H138.625L146.739 21.7338ZM162.877 12.4557H167.816L167.145 15.4543C168.016 14.396 168.992 13.5728 170.073 12.9849C171.155 12.3969 172.367 12.1029 173.707 12.1029C174.695 12.1029 175.589 12.3028 176.388 12.7027C177.188 13.079 177.858 13.6081 178.399 14.2902C178.963 14.9487 179.387 15.7483 179.669 16.6891C179.975 17.6063 180.128 18.5941 180.128 19.6524C180.128 21.2046 179.857 22.6863 179.316 24.0974C178.775 25.5085 178.046 26.755 177.129 27.8368C176.212 28.8952 175.153 29.7418 173.954 30.3768C172.755 31.0118 171.508 31.3293 170.215 31.3293C168.898 31.3293 167.816 31.0354 166.969 30.4474C166.122 29.8594 165.546 29.0363 165.24 27.9779L162.983 38.4907H157.338L162.877 12.4557ZM169.297 26.5668C169.932 26.5668 170.544 26.4022 171.132 26.0729C171.72 25.7202 172.237 25.2616 172.684 24.6971C173.154 24.1327 173.531 23.4977 173.813 22.7921C174.095 22.063 174.236 21.3222 174.236 20.5696C174.236 19.5113 173.954 18.6411 173.39 17.9591C172.825 17.2535 172.049 16.9007 171.061 16.9007C170.379 16.9007 169.674 17.1359 168.945 17.6063C168.216 18.0531 167.581 18.6646 167.04 19.4407L166.228 23.2507C166.393 24.1915 166.746 24.9793 167.287 25.6143C167.851 26.2493 168.521 26.5668 169.297 26.5668ZM184.72 12.4557H189.905L189.094 16.1952C189.988 14.9487 190.975 13.9727 192.057 13.2671C193.163 12.5615 194.245 12.2088 195.303 12.2088C195.75 12.2088 196.02 12.2205 196.114 12.244L195.056 17.2888C193.786 17.3123 192.587 17.5357 191.458 17.9591C190.352 18.3824 189.459 19.0174 188.776 19.8641L186.413 30.9766H180.768L184.72 12.4557ZM202.19 31.3293C200.991 31.3293 199.909 31.1412 198.945 30.7649C197.981 30.3651 197.157 29.8242 196.475 29.1421C195.817 28.4601 195.311 27.6369 194.958 26.6727C194.606 25.7084 194.429 24.6501 194.429 23.4977C194.429 21.9454 194.735 20.4755 195.346 19.0879C195.958 17.7003 196.805 16.4891 197.886 15.4543C198.968 14.4195 200.227 13.6081 201.661 13.0202C203.119 12.4087 204.683 12.1029 206.353 12.1029C208.493 12.1029 210.163 12.5615 211.363 13.4788C212.586 14.396 213.197 15.7013 213.197 17.3946C213.197 19.4172 212.28 20.9459 210.445 21.9807C208.611 23.0155 205.859 23.5329 202.19 23.5329C201.885 23.5329 201.567 23.5329 201.238 23.5329C200.932 23.5329 200.615 23.5212 200.285 23.4977C200.285 24.7442 200.509 25.6849 200.956 26.3199C201.402 26.9549 202.155 27.2724 203.213 27.2724C204.06 27.2724 204.836 27.0725 205.542 26.6727C206.271 26.2729 206.859 25.7202 207.306 25.0146L211.751 26.4257C211.257 27.1548 210.657 27.8251 209.951 28.4366C209.246 29.0245 208.47 29.5419 207.623 29.9888C206.8 30.4121 205.918 30.7414 204.977 30.9766C204.06 31.2117 203.131 31.3293 202.19 31.3293ZM205.436 16.1599C204.378 16.1599 203.46 16.5244 202.684 17.2535C201.932 17.9826 201.344 18.9116 200.92 20.0404H202.19C204.26 20.0404 205.706 19.8641 206.53 19.5113C207.353 19.1585 207.764 18.6176 207.764 17.8885C207.764 17.3476 207.541 16.9242 207.094 16.6185C206.671 16.3128 206.118 16.1599 205.436 16.1599ZM220.274 31.3293C218.793 31.3293 217.37 31.0824 216.006 30.5885C214.665 30.0711 213.583 29.3303 212.76 28.366L215.477 24.9088C216.37 25.6849 217.287 26.2846 218.228 26.7079C219.169 27.1313 220.098 27.3429 221.015 27.3429C221.768 27.3429 222.332 27.1901 222.709 26.8843C223.085 26.5551 223.273 26.12 223.273 25.5791C223.273 25.1792 223.073 24.85 222.673 24.5913C222.297 24.3091 221.627 24.0151 220.662 23.7093C219.698 23.4036 218.863 23.1096 218.158 22.8274C217.476 22.5216 216.911 22.2041 216.464 21.8749C216.017 21.5221 215.688 21.1458 215.477 20.746C215.265 20.3227 215.159 19.8405 215.159 19.2996C215.159 18.2648 215.382 17.3123 215.829 16.4421C216.3 15.5484 216.923 14.7841 217.699 14.1491C218.475 13.5141 219.381 13.0202 220.415 12.6674C221.45 12.2911 222.556 12.1029 223.732 12.1029C225.049 12.1029 226.236 12.2911 227.295 12.6674C228.376 13.0437 229.364 13.7257 230.258 14.7135L227.365 18.1002C226.495 17.3711 225.707 16.8419 225.002 16.5127C224.296 16.1834 223.59 16.0188 222.885 16.0188C222.25 16.0188 221.721 16.1716 221.297 16.4774C220.874 16.7831 220.662 17.2417 220.662 17.8532C220.662 18.253 220.862 18.5823 221.262 18.841C221.662 19.0762 222.32 19.3231 223.238 19.5818C225.26 20.1698 226.718 20.8048 227.612 21.4868C228.506 22.1689 228.953 23.0979 228.953 24.2738C228.953 25.3086 228.741 26.2611 228.318 27.1313C227.894 28.0015 227.295 28.7541 226.519 29.3891C225.766 30.0005 224.86 30.4827 223.802 30.8355C222.744 31.1647 221.568 31.3293 220.274 31.3293ZM237.293 31.3293C235.811 31.3293 234.389 31.0824 233.025 30.5885C231.684 30.0711 230.602 29.3303 229.779 28.366L232.495 24.9088C233.389 25.6849 234.306 26.2846 235.247 26.7079C236.188 27.1313 237.117 27.3429 238.034 27.3429C238.787 27.3429 239.351 27.1901 239.727 26.8843C240.104 26.5551 240.292 26.12 240.292 25.5791C240.292 25.1792 240.092 24.85 239.692 24.5913C239.316 24.3091 238.645 24.0151 237.681 23.7093C236.717 23.4036 235.882 23.1096 235.176 22.8274C234.494 22.5216 233.93 22.2041 233.483 21.8749C233.036 21.5221 232.707 21.1458 232.495 20.746C232.284 20.3227 232.178 19.8405 232.178 19.2996C232.178 18.2648 232.401 17.3123 232.848 16.4421C233.318 15.5484 233.942 14.7841 234.718 14.1491C235.494 13.5141 236.399 13.0202 237.434 12.6674C238.469 12.2911 239.574 12.1029 240.75 12.1029C242.067 12.1029 243.255 12.2911 244.313 12.6674C245.395 13.0437 246.383 13.7257 247.277 14.7135L244.384 18.1002C243.514 17.3711 242.726 16.8419 242.02 16.5127C241.315 16.1834 240.609 16.0188 239.904 16.0188C239.269 16.0188 238.74 16.1716 238.316 16.4774C237.893 16.7831 237.681 17.2417 237.681 17.8532C237.681 18.253 237.881 18.5823 238.281 18.841C238.681 19.0762 239.339 19.3231 240.256 19.5818C242.279 20.1698 243.737 20.8048 244.631 21.4868C245.525 22.1689 245.971 23.0979 245.971 24.2738C245.971 25.3086 245.76 26.2611 245.336 27.1313C244.913 28.0015 244.313 28.7541 243.537 29.3891C242.785 30.0005 241.879 30.4827 240.821 30.8355C239.763 31.1647 238.587 31.3293 237.293 31.3293ZM126.024 41.9293H134.985C136.608 41.9293 138.019 42.188 139.218 42.7054C140.441 43.1993 141.441 43.8814 142.217 44.7515C143.017 45.6217 143.605 46.6565 143.981 47.856C144.381 49.0319 144.581 50.3019 144.581 51.666C144.581 53.8767 144.204 55.9229 143.452 57.8043C142.699 59.6623 141.653 61.2733 140.312 62.6374C138.971 64.0015 137.384 65.0716 135.549 65.8477C133.739 66.6003 131.775 66.9766 129.658 66.9766H120.698L126.024 41.9293ZM130.716 61.8966C131.892 61.8966 132.962 61.6496 133.927 61.1557C134.891 60.6383 135.714 59.9445 136.396 59.0743C137.102 58.2041 137.643 57.2046 138.019 56.0757C138.395 54.9468 138.583 53.7591 138.583 52.5127C138.583 50.8664 138.184 49.5376 137.384 48.5263C136.608 47.515 135.444 47.0093 133.891 47.0093H130.716L127.541 61.8966H130.716ZM153.201 67.3293C152.002 67.3293 150.92 67.1412 149.955 66.7649C148.991 66.3651 148.168 65.8242 147.486 65.1421C146.828 64.4601 146.322 63.6369 145.969 62.6727C145.616 61.7084 145.44 60.6501 145.44 59.4977C145.44 57.9454 145.746 56.4755 146.357 55.0879C146.969 53.7003 147.815 52.4891 148.897 51.4543C149.979 50.4195 151.237 49.6081 152.672 49.0202C154.13 48.4087 155.694 48.1029 157.364 48.1029C159.504 48.1029 161.174 48.5615 162.373 49.4788C163.596 50.396 164.208 51.7013 164.208 53.3946C164.208 55.4172 163.29 56.9459 161.456 57.9807C159.622 59.0155 156.87 59.5329 153.201 59.5329C152.895 59.5329 152.578 59.5329 152.249 59.5329C151.943 59.5329 151.625 59.5212 151.296 59.4977C151.296 60.7442 151.519 61.6849 151.966 62.3199C152.413 62.9549 153.166 63.2724 154.224 63.2724C155.071 63.2724 155.847 63.0725 156.552 62.6727C157.282 62.2729 157.869 61.7202 158.316 61.0146L162.761 62.4257C162.267 63.1548 161.668 63.8251 160.962 64.4366C160.257 65.0245 159.48 65.5419 158.634 65.9888C157.811 66.4121 156.929 66.7414 155.988 66.9766C155.071 67.2117 154.142 67.3293 153.201 67.3293ZM156.447 52.1599C155.388 52.1599 154.471 52.5244 153.695 53.2535C152.942 53.9826 152.354 54.9116 151.931 56.0404H153.201C155.271 56.0404 156.717 55.8641 157.54 55.5113C158.363 55.1585 158.775 54.6176 158.775 53.8885C158.775 53.3476 158.552 52.9242 158.105 52.6185C157.681 52.3128 157.129 52.1599 156.447 52.1599ZM169.133 67.2941C167.793 67.2941 166.781 67.0001 166.099 66.4121C165.417 65.8242 165.076 64.9657 165.076 63.8368C165.076 63.6017 165.088 63.3665 165.111 63.1313C165.158 62.8961 165.206 62.6374 165.253 62.3552L169.733 41.2238H175.377L171.285 60.3796C171.262 60.4972 171.238 60.6266 171.214 60.7677C171.214 60.8853 171.214 61.0029 171.214 61.1204C171.214 62.0377 171.661 62.4963 172.555 62.4963C172.814 62.4963 173.108 62.461 173.437 62.3904C173.79 62.2964 174.119 62.167 174.425 62.0024L174.248 66.2357C173.496 66.565 172.649 66.8237 171.708 67.0118C170.768 67.2 169.909 67.2941 169.133 67.2941ZM179.793 48.4557H185.438L181.486 66.9766H175.842L179.793 48.4557ZM181.31 41.2238H186.954L185.861 46.339H180.216L181.31 41.2238ZM187.292 48.4557H193.148L193.748 62.461C194.524 61.1675 195.218 59.9563 195.83 58.8274C196.465 57.675 197.029 56.5579 197.523 55.476C198.04 54.3706 198.511 53.2535 198.934 52.1246C199.357 50.9957 199.781 49.7728 200.204 48.4557H205.319C204.473 51.5366 203.191 54.6293 201.474 57.7338C199.781 60.8147 197.735 63.8956 195.336 66.9766H189.48L187.292 48.4557ZM212.491 67.3293C211.292 67.3293 210.21 67.1412 209.246 66.7649C208.281 66.3651 207.458 65.8242 206.776 65.1421C206.118 64.4601 205.612 63.6369 205.259 62.6727C204.906 61.7084 204.73 60.6501 204.73 59.4977C204.73 57.9454 205.036 56.4755 205.647 55.0879C206.259 53.7003 207.105 52.4891 208.187 51.4543C209.269 50.4195 210.527 49.6081 211.962 49.0202C213.42 48.4087 214.984 48.1029 216.654 48.1029C218.794 48.1029 220.464 48.5615 221.663 49.4788C222.886 50.396 223.498 51.7013 223.498 53.3946C223.498 55.4172 222.581 56.9459 220.746 57.9807C218.912 59.0155 216.16 59.5329 212.491 59.5329C212.185 59.5329 211.868 59.5329 211.539 59.5329C211.233 59.5329 210.915 59.5212 210.586 59.4977C210.586 60.7442 210.81 61.6849 211.256 62.3199C211.703 62.9549 212.456 63.2724 213.514 63.2724C214.361 63.2724 215.137 63.0725 215.843 62.6727C216.572 62.2729 217.16 61.7202 217.606 61.0146L222.051 62.4257C221.558 63.1548 220.958 63.8251 220.252 64.4366C219.547 65.0245 218.771 65.5419 217.924 65.9888C217.101 66.4121 216.219 66.7414 215.278 66.9766C214.361 67.2117 213.432 67.3293 212.491 67.3293ZM215.737 52.1599C214.678 52.1599 213.761 52.5244 212.985 53.2535C212.232 53.9826 211.645 54.9116 211.221 56.0404H212.491C214.561 56.0404 216.007 55.8641 216.83 55.5113C217.653 55.1585 218.065 54.6176 218.065 53.8885C218.065 53.3476 217.842 52.9242 217.395 52.6185C216.971 52.3128 216.419 52.1599 215.737 52.1599ZM227.577 48.4557H232.762L231.951 52.1952C232.845 50.9487 233.832 49.9727 234.914 49.2671C236.02 48.5615 237.102 48.2088 238.16 48.2088C238.607 48.2088 238.877 48.2205 238.971 48.244L237.913 53.2888C236.643 53.3123 235.444 53.5357 234.315 53.9591C233.209 54.3824 232.316 55.0174 231.634 55.8641L229.27 66.9766H223.625L227.577 48.4557ZM236.029 70.8924C236.735 70.8689 237.334 70.8101 237.828 70.716C238.322 70.6455 238.757 70.5279 239.134 70.3632C239.51 70.1986 239.851 69.9752 240.157 69.693C240.462 69.4342 240.78 69.0932 241.109 68.6699L242.132 67.3646L239.381 48.4557H245.131L246.154 62.1435L247.353 60.1679C248.553 58.2394 249.517 56.3462 250.246 54.4882C250.975 52.6067 251.575 50.5959 252.045 48.4557H257.478C257.149 49.5846 256.808 50.6429 256.455 51.6307C256.102 52.6185 255.655 53.6768 255.114 54.8057C254.574 55.9111 253.903 57.1458 253.104 58.5099C252.328 59.8504 251.363 61.4615 250.211 63.3429L247.389 67.8938C246.565 69.2343 245.754 70.3632 244.954 71.2805C244.155 72.1977 243.332 72.9385 242.485 73.503C241.638 74.0674 240.745 74.479 239.804 74.7377C238.863 74.9964 237.828 75.1257 236.699 75.1257L236.029 70.8924Z" fill="white"/>
<path d="M96.0433 29.6592L85.3371 7.28322H64.9953V1.82306H13.9375V8.24678H58.6466V34.3806H91.5788L96.3645 40.526V57.3561H90.0478C89.3439 54.5543 87.7244 52.0679 85.4464 50.2914C83.1684 48.5149 80.3623 47.55 77.4734 47.55C74.5846 47.55 71.7785 48.5149 69.5004 50.2914C67.2224 52.0679 65.6029 54.5543 64.899 57.3561H45.4137C44.7098 54.5543 43.0903 52.0679 40.8123 50.2914C38.5342 48.5149 35.7281 47.55 32.8393 47.55C29.9504 47.55 27.1443 48.5149 24.8663 50.2914C22.5882 52.0679 20.9688 54.5543 20.2649 57.3561H13.9375V63.7798H20.2863C21.0089 66.5577 22.6328 69.0173 24.9036 70.773C27.1744 72.5287 29.9636 73.4812 32.8339 73.4812C35.7043 73.4812 38.4935 72.5287 40.7643 70.773C43.035 69.0173 44.659 66.5577 45.3816 63.7798H64.9204C65.643 66.5577 67.267 69.0173 69.5377 70.773C71.8085 72.5287 74.5977 73.4812 77.4681 73.4812C80.3384 73.4812 83.1276 72.5287 85.3984 70.773C87.6692 69.0173 89.2931 66.5577 90.0157 63.7798H102.777V38.3205L96.0326 29.6592H96.0433ZM32.8768 67.0773C31.5783 67.0773 30.309 66.6921 29.2295 65.9705C28.15 65.2489 27.3088 64.2233 26.8124 63.0235C26.316 61.8236 26.1867 60.5035 26.4408 59.2301C26.6949 57.9567 27.321 56.7874 28.2399 55.87C29.1588 54.9526 30.3292 54.3283 31.603 54.0763C32.8768 53.8243 34.1967 53.9558 35.3957 54.4542C36.5947 54.9525 37.619 55.7954 38.3388 56.8761C39.0587 57.9567 39.4418 59.2267 39.4397 60.5251C39.4383 61.3897 39.2661 62.2455 38.9329 63.0433C38.5998 63.8411 38.1123 64.5652 37.4985 65.1741C36.8847 65.7829 36.1566 66.2645 35.3561 66.5911C34.5556 66.9177 33.6985 67.083 32.8339 67.0773H32.8768ZM77.5109 67.0773C76.2124 67.0773 74.9431 66.6921 73.8636 65.9705C72.7841 65.2489 71.943 64.2233 71.4465 63.0235C70.9501 61.8236 70.8208 60.5035 71.0749 59.2301C71.329 57.9567 71.9551 56.7874 72.874 55.87C73.7929 54.9526 74.9633 54.3283 76.2371 54.0763C77.5109 53.8243 78.8308 53.9558 80.0298 54.4542C81.2289 54.9525 82.2531 55.7954 82.9729 56.8761C83.6928 57.9567 84.0759 59.2267 84.0738 60.5251C84.0724 61.3897 83.9002 62.2455 83.5671 63.0433C83.2339 63.8411 82.7465 64.5652 82.1326 65.1741C81.5188 65.7829 80.7907 66.2645 79.9902 66.5911C79.1898 66.9177 78.3326 67.083 77.4681 67.0773H77.5109ZM65.0703 13.7069H81.3223L88.1207 27.9676H65.0703V13.7069Z" fill="white"/>
<path d="M22.8225 40.8686H5.69263V47.2923H22.8225V40.8686Z" fill="white"/>
<path d="M30.3179 28.0211H0.340576V34.4448H30.3179V28.0211Z" fill="white"/>
<path d="M35.67 15.1736H5.69263V21.5974H35.67V15.1736Z" fill="white"/>
</svg>
